HIERARCHY
ROOT pelvis
{
  OFFSET 0 100 0
  CHANNELS 6 Xposition Yposition Zposition Zrotation Xrotation Yrotation
  JOINT pelvis_right_femur
  {
    OFFSET -10.78128 -3.44521 -0.5502486
    CHANNELS 3 Zrotation Xrotation Yrotation
    JOINT right_femur_tibia
    {
      OFFSET -0.8047443 -44.0398 -0.1307829
      CHANNELS 3 Zrotation Xrotation Yrotation
      JOINT right_tibia_foot
      {
        OFFSET 3.006224 -47.83518 -5
        CHANNELS 3 Zrotation Xrotation Yrotation
        End Site
        {
          OFFSET 0 -5 15
        }
      }
    }
  }
  JOINT pelvis_left_femur
  {
    OFFSET 10.78128 -3.44521 -0.5502486
    CHANNELS 3 Zrotation Xrotation Yrotation
    JOINT left_femur_tibia
    {
      OFFSET 0.8047443 -44.0398 -0.1307829
      CHANNELS 3 Zrotation Xrotation Yrotation
      JOINT left_tibia_foot
      {
        OFFSET -4.370144 -48.10324 -4.275266
        CHANNELS 3 Zrotation Xrotation Yrotation
        End Site
        {
          OFFSET 0 -5 15
        }
      }
    }
  }
  JOINT pelvis_spine1
  {
    OFFSET 0 6.468898 -3.129235
    CHANNELS 3 Zrotation Xrotation Yrotation
    JOINT spine1
    {
      OFFSET 0 23.15396 4.99043
      CHANNELS 3 Zrotation Xrotation Yrotation
      JOINT spine2
      {
        OFFSET 0 20.79997 -5.064912
        CHANNELS 3 Zrotation Xrotation Yrotation
        JOINT neck
        {
          OFFSET 0 14.38658 9.616178
          CHANNELS 3 Zrotation Xrotation Yrotation
          End Site
          {
            OFFSET 0 20 0
          }
        }
      }
      JOINT right_manubrium
      {
        OFFSET -5.722621 16.35077 3.967754
        CHANNELS 3 Zrotation Xrotation Yrotation
        JOINT right_clavicle
        {
          OFFSET -13.16364 1.694482 -4.693211
          CHANNELS 3 Zrotation Xrotation Yrotation
          JOINT right_humerus
          {
            OFFSET -28.5034 -0.3100689 -2.792744
            CHANNELS 3 Zrotation Xrotation Yrotation
            JOINT right_radius
            {
              OFFSET -25.15693 0.02248979 -1.271978
              CHANNELS 3 Zrotation Xrotation Yrotation
              End Site
              {
                OFFSET -15 0 0
              }
            }
          }
        }
      }
      JOINT left_manubrium
      {
        OFFSET 5.722621 16.35077 3.967754
        CHANNELS 3 Zrotation Xrotation Yrotation
        JOINT left_clavicle
        {
          OFFSET 13.16364 1.694482 -4.693211
          CHANNELS 3 Zrotation Xrotation Yrotation
          JOINT left_humerus
          {
            OFFSET 29.39168 -1.063119 -2.237045
            CHANNELS 3 Zrotation Xrotation Yrotation
            JOINT left_radius
            {
              OFFSET 24.59957 -0.9528479 0.9047498
              CHANNELS 3 Zrotation Xrotation Yrotation
              End Site
              {
                OFFSET 15 -0 -0
              }
            }
          }
        }
      }
    }
  }
}
MOTION
Frames: 17
Frame Time: 0.0416666666667
0 103.5113 0 2.369942 0.6650928 0.1169893 3.283354 -16.43191 11.92403 -0 35.85598 -0 -3.317765 -18.95232 -3.315393 -8.954314 8.956332 -22.4601 -0 4.544995 -0 21.46721 -9.479246 30.5369 -2.539953 -2.186681 4.517137 2.615809 9.663255 -7.010245 1.347703 21.69973 6.560818 2.765099 -25.87175 9.857422 5.783692 -18.98752 11.37139 85.66695 36.71897 -17.07318 -0 0 14.96797 -6.758024 6.931927 5.234172 5.304391 -19.15877 -1.385075 -91.043 19.94531 19.57948 0 0 -13.57469 15.39091 12.85762 -4.702419
0.4041064 103.414 1.701023 1.923169 1.097051 0.2110589 4.156151 -18.45598 12.5239 -0 36.06045 -0 -3.457335 -18.32701 -3.335999 -8.697524 9.179833 -22.49264 -0 4.787909 -0 21.74552 -9.698653 30.92674 -2.608443 -2.106672 4.282164 2.887328 9.687739 -7.200604 1.344135 21.53847 6.842478 2.819285 -26.44099 10.30199 5.750897 -18.93972 11.41093 86.36289 37.21315 -17.91051 -0 0 14.33993 -5.856546 6.791203 4.734309 5.330887 -19.29714 -1.608964 -90.64284 19.7249 19.17938 0 0 -14.87912 16.10881 12.29487 -5.455854
0.8182476 102.9943 4.116086 1.251726 1.147547 0.3209038 4.739374 -23.76005 6.819381 -0 28.81616 -0 -5.654171 -12.27112 -0.04355202 -8.197772 10.4837 -20.60969 -0 5.916499 -0 19.63078 -12.29815 27.82848 -2.438645 -1.940214 4.230961 3.045183 9.927556 -7.413868 1.412678 21.40767 6.729373 2.73421 -25.77057 10.03263 5.826766 -18.45123 11.52758 86.69284 37.02726 -18.7593 -0 0 13.29199 -6.096955 7.598305 4.726716 5.408873 -19.69867 -1.824231 -90.24688 20.37223 18.63935 0 0 -16.74747 14.76701 12.14642 -3.589707
1.212913 102.4571 7.03826 0.7315953 1.44176 0.4428431 5.216237 -27.11686 4.368362 -0 24.63634 -0 -6.751236 -8.81862 1.267434 -7.812272 11.18413 -19.27224 -0 7.321014 -0 18.01059 -13.93221 26.01465 -2.399711 -1.883133 4.125991 3.221323 10.00626 -7.58031 1.430714 21.27025 6.811002 2.720407 -25.75373 10.10956 5.813867 -18.26443 11.58088 87.08496 37.1348 -19.43789 -0 0 12.63233 -5.890555 7.899883 4.571437 5.492802 -19.94848 -1.975173 -89.92845 20.60468 18.27212 0 0 -18.15387 14.5001 11.86328 -3.096811
1.57889 101.7477 10.67005 0.4516852 1.323155 0.6207897 5.021278 -29.43854 0.6516047 -0 18.92658 -0 -8.123183 -4.736637 2.83116 -7.522798 11.8913 -17.15228 -0 9.675896 -0 15.7572 -15.42632 23.17599 -2.329113 -1.833864 4.06755 3.328101 10.08543 -7.712079 1.451752 21.16522 6.814601 2.697271 -25.53905 10.04717 5.817253 -18.04738 11.62331 87.32597 37.09457 -19.95918 -0 0 12.07033 -5.960203 8.278697 4.558044 5.578756 -20.18172 -2.0813 -89.66206 20.89692 17.9391 0 0 -19.29817 13.97521 11.70199 -2.318717
1.904514 100.9892 14.98019 0.2243842 1.127153 0.854738 4.848654 -30.75324 -2.135558 -0 14.32166 -0 -9.182236 -1.46439 3.718428 -7.234441 12.56334 -15.1348 -0 12.61491 -0 13.365 -16.4241 20.50627 -2.291469 -1.806067 4.018264 3.405164 10.12419 -7.801271 1.462369 21.08826 6.833298 2.687182 -25.42965 10.02719 5.808999 -17.91209 11.64714 87.49972 37.09515 -20.30972 -0 0 11.69478 -5.988617 8.510696 4.547159 5.643105 -20.33519 -2.152998 -89.45794 21.05821 17.69219 0 0 -20.0985 13.68837 11.56639 -1.881249
2.177749 100.2388 19.99107 0.1095536 0.5186417 1.123922 4.611956 -30.81937 -4.654861 -0 10.28167 -0 -10.17424 1.500963 4.188474 -6.929308 13.21478 -12.91503 -0 16.49022 -0 10.80889 -16.77393 17.72453 -2.258109 -1.774522 3.994475 3.427841 10.15354 -7.845667 1.471483 21.05412 6.812378 2.679329 -25.26198 9.95274 5.813733 -17.79504 11.65989 87.5623 37.04909 -20.47445 -0 0 11.4693 -6.119196 8.684811 4.595116 5.675921 -20.41971 -2.195337 -89.30961 21.14509 17.50139 0 0 -20.51546 13.40677 11.50232 -1.50942
2.389458 99.61967 25.64778 0.0121096 -0.4193516 1.380001 4.63689 -29.84198 -6.260719 -0 7.590206 -0 -10.9682 3.845366 4.063863 -6.540958 13.74663 -10.77842 -0 21.26353 -0 8.427746 -16.33499 15.30443 -2.241146 -1.738344 3.990836 3.405439 10.1704 -7.843488 1.477993 21.06319 6.766628 2.675442 -25.08636 9.856048 5.827638 -17.71486 11.66311 87.52769 36.99211 -20.44959 -0 0 11.40482 -6.288499 8.76377 4.672845 5.669149 -20.42361 -2.213363 -89.22117 21.12778 17.37899 0 0 -20.54237 13.21218 11.49288 -1.306137
2.528066 99.23177 31.85253 -0.07259023 -1.789719 1.544294 4.958106 -27.82649 -6.939011 -0 6.352128 -0 -11.60534 5.571854 3.378332 -6.038131 13.99098 -8.782783 -0 26.95988 -0 6.471914 -15.06748 13.49794 -2.236926 -1.690591 4.010521 3.332526 10.17962 -7.791827 1.483841 21.11855 6.685818 2.673909 -24.86859 9.718398 5.853808 -17.66 11.65864 87.38296 36.91134 -20.22138 -0 0 11.49694 -6.527559 8.762364 4.794741 5.61905 -20.34573 -2.209709 -89.18624 21.00968 17.31514 0 0 -20.17379 13.06158 11.54152 -1.224015
2.580776 99.17213 38.4483 -0.1723092 -3.523571 1.526382 5.55349 -24.9251 -6.658397 -0 6.603285 -0 -12.08089 6.550462 2.19912 -5.407963 13.71977 -7.102223 -0 33.37203 -0 5.080867 -13.12706 12.55061 -2.249119 -1.631695 4.053887 3.209755 10.1761 -7.686658 1.489202 21.21858 6.574299 2.67562 -24.61551 9.546734 5.88743 -17.63676 11.64637 87.12193 36.81867 -19.77341 -0 0 11.75294 -6.832094 8.674454 4.963048 5.525751 -20.182 -2.184581 -89.20093 20.78278 17.30988 0 0 -19.42265 12.96954 11.64117 -1.282343
2.533993 99.48499 45.23772 -0.2705209 -5.533513 1.249606 6.244022 -21.21294 -5.65293 -0 7.971317 -0 -12.42072 6.701057 0.6813091 -4.688368 12.69332 -5.84478 -0 40.05544 -0 4.216197 -10.8364 12.54698 -2.278402 -1.56249 4.122368 3.035027 10.15242 -7.523187 1.494728 21.35937 6.434476 2.68207 -24.31936 9.34053 5.922095 -17.64695 11.62511 86.73233 36.71951 -19.08508 -0 0 12.17733 -7.219266 8.505132 5.19197 5.39366 -19.93163 -2.137092 -89.2548 20.44532 17.35542 0 0 -18.31838 12.928 11.78483 -1.471804
2.37829 100.1479 52.0125 -0.3420888 -7.635093 0.6836046 6.811939 -16.78226 -4.246276 -0 9.852732 -0 -12.63905 5.946415 -0.9735538 -3.951302 10.73071 -5.079647 -0 46.28045 -0 3.680987 -8.620325 13.41143 -2.325708 -1.486817 4.216674 2.807071 10.09603 -7.296078 1.500793 21.53348 6.273801 2.696499 -23.98059 9.105482 5.947987 -17.69636 11.59223 86.20226 36.6244 -18.13448 -0 0 12.77693 -7.702967 8.257652 5.496266 5.231532 -19.59476 -2.064962 -89.33598 19.99581 17.44491 0 0 -16.90658 12.93771 11.96248 -1.791081
2.113779 101.0535 58.59557 -0.3607231 -9.610308 -0.1393981 7.079201 -11.75353 -2.781473 -0 11.57453 -0 -12.75305 4.277823 -2.550456 -3.2675 7.783348 -4.80234 -0 51.07289 -0 3.230801 -6.879246 14.94567 -2.38972 -1.40965 4.336601 2.525194 9.992156 -7.001185 1.507895 21.7298 6.102298 2.723618 -23.59841 8.848019 5.953782 -17.78929 11.54421 85.5221 36.54191 -16.90521 -0 0 13.55333 -8.301251 7.940304 5.893067 5.052557 -19.17516 -1.96627 -89.42939 19.43785 17.56867 0 0 -15.25365 12.99166 12.1617 -2.22587
1.754029 102.0215 64.87673 -0.3323879 -11.23612 -1.139567 6.995967 -6.342662 -1.517094 -0 12.65132 -0 -12.79066 1.792282 -3.84978 -2.652056 3.962872 -4.947766 -0 53.40308 -0 2.662025 -5.847779 16.86073 -2.466815 -1.336853 4.480154 2.19097 9.825857 -6.63726 1.516463 21.93392 5.933242 2.769445 -23.17501 8.577355 5.928092 -17.92837 11.47726 84.68985 36.47814 -15.39434 -0 0 14.49956 -9.028417 7.564324 6.396384 4.873422 -18.68067 -1.840504 -89.51982 18.78071 17.71726 0 0 -13.44341 13.07873 12.36809 -2.752529
1.326797 102.8303 70.829 -0.3057873 -12.34079 -2.226898 6.65504 -0.8624141 -0.5959791 -0 12.93854 -0 -12.78343 -1.288064 -4.723404 -2.051314 -0.468439 -5.398024 -0 52.479 -0 1.861288 -5.525656 18.82795 -2.550462 -1.273474 4.642707 1.810101 9.586741 -6.208607 1.527001 22.12958 5.781371 2.840069 -22.71388 8.304023 5.862227 -18.11108 11.38863 83.71756 36.43331 -13.62408 -0 0 15.59207 -9.890466 7.145856 7.012178 4.712285 -18.12501 -1.690621 -89.59364 18.04221 17.8814 0 0 -11.57442 13.17908 12.5664 -3.331839
0.872464 103.2741 76.50065 -0.3530981 -12.84548 -3.333675 6.229427 4.341613 -0.0462106 -0 12.64582 -0 -12.73176 -4.651383 -5.118345 -1.393555 -5.133255 -5.99362 -0 48.10953 -0 0.8204433 -5.712741 20.54643 -2.631775 -1.221727 4.816312 1.3943 9.27436 -5.727342 1.540348 22.30171 5.66019 2.939601 -22.21959 8.039021 5.75343 -18.32681 11.27831 82.6378 36.40103 -11.65241 -0 0 16.78408 -10.87699 6.706255 7.731443 4.585184 -17.52833 -1.524714 -89.64173 17.25033 18.05226 0 0 -9.750528 13.26461 12.74282 -3.91
0.4392338 103.2297 81.99275 -0.520659 -12.79011 -4.421469 5.854518 8.99234 0.198593 -0 12.22176 -0 -12.5854 -7.955033 -5.098357 -0.6795059 -9.572531 -6.572322 -0 40.95333 -0 -0.3544881 -6.130553 21.82568 -2.700838 -1.17827 4.989377 0.9624645 8.903773 -5.214816 1.55834 22.44066 5.577814 3.067378 -21.6957 7.792079 5.608135 -18.55367 11.15089 81.50802 36.36975 -9.579895 -0 0 18.00035 -11.95364 6.273333 8.523661 4.501444 -16.91746 -1.357284 -89.66094 16.44458 18.21933 0 0 -8.069594 13.3007 12.88829 -4.421962
